<?xml version='1.0' encoding='UTF-8'?>
<svg width="286" height="52" viewBox="0 0 286 52" version='1.1' xmlns='http://www.w3.org/2000/svg'>
<desc>Copyright 2002, 2021 Jaime E. Villate</desc>
<path transform="translate(10,10)" d="M0 32 V12 Q0 0 12 0 H36 Q48 0 48 12 V32 H40 V20 H8 V32 Z M40 12 Q40 8 36 8 H8 H12 Q8 8 8 12 Z" />
<path transform="translate(66,10)" d="M0 32 V12 Q0 0 12 0 H36 Q48 0 48 12 V32 H40 V12 Q40 8 36 8 H12 Q8 8 8 12 V32 Z" />
<path transform="translate(122,10)" d="M2 32 H38 C52 32 52 12 38 12 H10 C7 12 7 8 10 8 H46 V0 H10 C-4 0 -4 20 10 20 H38 C41 20 41 24 38 24 H2 Z" />
<path transform="translate(178,10)" d="M0 12 Q0 0 12 0 H36 Q48 0 48 12 V20 Q48 32 36 32 H12 Q0 32 0 20 Z M40 12 Q40 8 36 8 H12 Q8 8 8 12 V20 Q8 24 12 24 H36 Q40 24 40 20 Z" />
<path transform="translate(234,10)" d="M0 20 Q0 32 12 32 H40 V24 H12 Q8 24 8 20 V0 H0 Z" />
</svg>
